<?xml version="1.0" encoding="utf-8"?>
<!-- Svg Vector Icons : http://www.onlinewebfonts.com/icon -->
<!DOCTYPE svg PUBLIC "-//W3C//DTD SVG 1.1//EN" "http://www.w3.org/Graphics/SVG/1.1/DTD/svg11.dtd">
<svg version="1.1" xmlns="http://www.w3.org/2000/svg" xmlns:xlink="http://www.w3.org/1999/xlink" x="0px" y="0px" viewBox="0 0 1000 1000" enable-background="new 0 0 1000 1000" xml:space="preserve">
<metadata> Svg Vector Icons : http://www.onlinewebfonts.com/icon </metadata>
<g><g transform="translate(0.000000,511.000000) scale(0.100000,-0.100000)"><path d="M3744.6,4940.4c-298.5-191.9-647.7-852.9-786.3-1497.9c-34.6-157.3-48-338.5-48-586.4c0-517.1,88-1026.2,335.8-1900.4c90.6-325.2,119.9-394.5,165.2-407.8c32-8,159.9-29.3,290.5-48c191.9-29.3,231.9-29.3,231.9,2.7c0,18.7-53.3,474.4-119.9,1012.8c-66.6,538.4-114.6,996.8-106.6,1015.5c8,21.3,45.3,32,98.6,26.7l87.9-8l127.9-1039.5c69.3-570.4,135.9-1044.8,146.6-1055.5c10.7-10.7,130.6-24,266.5-29.3l245.2-10.7v1452.6c-2.7,1817.8-29.3,2156.3-215.9,2644C4293.7,4953.7,4024.5,5116.3,3744.6,4940.4z"/><path d="M5741,3426.4c-162.6-48-277.2-165.2-301.2-301.2c-56-338.5,346.5-1108.8,839.6-1601.9c605-605,1015.5-557.1,1162.1,135.9c50.6,229.2,37.3,610.4-29.3,863.6c-64,247.9-213.2,530.4-335.8,637C6804.4,3391.8,6092.8,3535.7,5741,3426.4z"/><path d="M5426.5,1374.1V422.6l253.2,13.3c141.3,8,261.2,21.3,269.2,26.7c8,8,40,226.6,71.9,482.4l56,466.4l-146.6,181.3c-173.3,215.9-338.5,458.4-421.1,618.4c-32,61.3-64,111.9-69.3,111.9C5431.8,2323,5426.5,1896.5,5426.5,1374.1z"/><path d="M4893.4,1896.5V1550h173.2h173.3v346.5V2243h-173.3h-173.2V1896.5z"/><path d="M2694.5,1984.5c-210.6-53.3-655.7-221.2-874.2-333.2C1036.6,1248.9,916.7,713.1,1519.1,284c599.7-423.8,1607.2-685,2939.9-765c2044.3-117.3,4054,418.5,4368.5,1164.8c133.3,319.8-103.9,687.7-621,954.2c-266.5,135.9-503.7,231.9-525.1,210.6c-10.6-8-16-53.3-16-101.3c0-101.3-87.9-383.8-157.3-517.1l-50.6-93.3l90.6-98.6c50.7-56,90.6-130.6,90.6-165.2c0-317.2-967.5-607.7-2172.3-653c-1428.6-53.3-2670.7,149.3-3014.5,493.1c-56,58.6-90.6,117.3-90.6,162.6c0,103.9,194.6,277.2,394.5,351.8c90.6,34.7,165.3,74.6,165.3,93.3c0,61.3-143.9,682.3-157.3,679.7C2755.8,1997.8,2723.8,1989.8,2694.5,1984.5z"/><path d="M6215.4,867.7c-24-199.9-40-370.5-32-375.8c16-18.7,533.1,74.6,565.1,101.3c16,13.3,42.7,72,61.3,133.3c18.6,61.3,40,125.3,48,146.6c8,21.3-2.7,37.3-21.3,37.3c-64,0-301.2,122.6-431.8,223.9c-69.3,53.3-130.6,96-133.3,96C6266,1230.2,6242.1,1067.6,6215.4,867.7z"/><path d="M1148.6,241.4c138.6-637,1258-1130.1,2905.2-1276.7c413.1-37.3,1481.9-37.3,1892.4,0C7593.4-888.7,8712.8-395.7,8851.4,241.4l18.7,93.3l-127.9-109.3C8355.7-94.5,7835.9-318.3,7079-486.3c-653-143.9-1255.4-202.6-2079-202.6c-1058.1,0-1897.7,114.6-2673.3,365.2c-482.4,154.6-772.9,303.9-1068.8,549.1l-127.9,109.3L1148.6,241.4z"/><path d="M2246.7-1080.7c-29.3-303.8-21.3-386.5,42.6-495.7c213.2-351.8,983.5-639.7,1975-741c461.1-45.3,1455.3-18.7,1868.4,53.3c820.9,141.3,1362,373.1,1561.9,669l82.6,119.9l-18.7,279.9c-10.7,154.6-21.3,282.5-26.7,287.9c-2.7,5.3-114.6-21.3-242.5-58.6c-799.6-229.2-1695.2-327.9-2769.3-301.2c-962.2,24-1567.2,114.6-2401.5,354.5C2268-899.4,2262.7-910.1,2246.7-1080.7z"/><path d="M2166.7-1960.2c-88-876.9-157.3-1799.1-141.3-1881.7c69.3-373.1,812.9-727.6,1855.1-884.9c461.1-69.3,1503.2-85.3,1999-29.3c653,74.6,1239.4,229.2,1612.5,423.8c221.2,117.3,455.8,354.5,482.4,485.1c10.7,58.6-16,493.1-66.6,1050.2c-45.3,522.4-82.6,959.5-82.6,972.9c0,10.6-50.6-21.3-114.6-72c-780.9-639.7-2870.6-855.6-4416.5-458.4c-429.1,109.3-765,263.9-1002.2,455.8l-109.3,90.6L2166.7-1960.2z"/></g></g>
</svg>